<?xml version="1.0" encoding="UTF-8"?><svg id="Camada_2" xmlns="http://www.w3.org/2000/svg" viewBox="0 0 537.38 248.81"><defs><style>.cls-1{fill:#6d78b7;}.cls-2{fill:#383838;}</style></defs><g id="Camada_1-2"><g><g><path class="cls-2" d="M66,37.81c-18.39,0-35.16,6.71-47.22,18.91C6.67,68.95,0,86.01,0,104.77s6.91,36.21,19.47,48.29c12.85,12.37,30.52,18.9,51.1,18.9,21.89,0,39.81-7.4,51.8-21.39l1.11-1.3-1.11-1.3-12.75-14.92-1.48-1.73-1.53,1.68c-8.87,9.78-20.76,14.74-35.33,14.74-23.22,0-40.19-12.99-43.86-33.29h102.91l.2-1.78c.12-1.04,.49-4.64,.49-7.2,0-39.85-26.74-67.68-65.03-67.68ZM27.39,93.86c3.14-19.58,18.4-32.57,38.61-32.57s35.44,12.99,38.61,32.57H27.39Z"/><path class="cls-2" d="M414.14,37.81c-18.39,0-35.16,6.71-47.22,18.91-12.11,12.23-18.77,29.3-18.77,48.05s6.91,36.21,19.47,48.29c12.85,12.37,30.52,18.9,51.1,18.9,21.89,0,39.81-7.4,51.8-21.39l1.11-1.3-1.11-1.3-12.75-14.92-1.48-1.73-1.53,1.68c-8.87,9.78-20.76,14.74-35.33,14.74-23.22,0-40.19-12.99-43.86-33.29h102.91l.2-1.78c.12-1.04,.49-4.64,.49-7.2,0-39.85-26.74-67.68-65.03-67.68Zm0,23.49c20.18,0,35.44,12.99,38.61,32.57h-77.22c3.14-19.58,18.4-32.57,38.61-32.57Z"/></g><circle class="cls-1" cx="515.56" cy="153.26" r="21.82"/><path class="cls-1" d="M125.11,0c-11.91-.35-21.86,9.01-22.21,20.93-.35,11.91,9.01,21.86,20.93,22.21,11.91,.35,21.86-9.01,22.21-20.93C146.39,10.31,137.02,.36,125.11,0Zm-.86,26.26h-1.96v-5.96s1.13,0,2.52,0c1.2,0,2.54-1.29,2.54-3.32,0-1.74-1.44-2.77-2.54-2.8-1.8-.05-3.94,0-3.94,0v20.14h-5.87V8.3h5.87s.96-.01,3.46-.01,3.75,.54,3.75,.54c0,0,7.27,2.14,6.05,9.84-1.22,7.71-9.89,7.6-9.89,7.6Zm5.24,8.08l-4.76-6.57,6.66-1.51,5.68,8.08h-7.57Z"/><g><path class="cls-2" d="M440.12,219.29c0-.61,.52-1.12,1.13-1.12s1.12,.52,1.12,1.12v27.28h16.93c.56,0,1.04,.48,1.04,1.04s-.48,1.04-1.04,1.04h-18.05c-.61,0-1.13-.52-1.13-1.12v-28.23Z"/><path class="cls-2" d="M466.91,219.46c0-.61,.52-1.12,1.12-1.12h11.6c3.72,0,6.71,1.17,8.53,2.99,1.43,1.43,2.3,3.46,2.3,5.63v.09c0,5.06-3.77,7.96-8.88,8.66l8.62,11.17c.22,.26,.35,.52,.35,.78,0,.61-.56,1.17-1.17,1.17-.43,0-.74-.26-1-.61l-9.31-12.12h-9.91v11.6c0,.61-.52,1.13-1.12,1.13s-1.12-.52-1.12-1.13v-28.23Zm12.47,14.59c5.06,0,8.83-2.55,8.83-6.93v-.09c0-4.07-3.21-6.62-8.7-6.62h-10.35v13.64h10.22Z"/><path class="cls-2" d="M498.21,219.46c0-.61,.52-1.12,1.12-1.12h11.39c3.42,0,6.19,1,7.88,2.68,1.25,1.26,1.95,2.86,1.95,4.76v.09c0,4.11-2.68,6.19-5.15,7.19,3.64,.95,6.84,3.03,6.84,7.23v.08c0,5.07-4.33,8.27-10.87,8.27h-12.03c-.61,0-1.12-.52-1.12-1.12v-28.06Zm12.25,12.86c4.55,0,7.79-2.21,7.79-6.23v-.09c0-3.33-2.73-5.58-7.58-5.58h-10.22v11.91h10Zm1,14.24c5.2,0,8.49-2.38,8.49-6.19v-.08c0-3.72-3.25-5.89-9.22-5.89h-10.26v12.17h11Z"/></g><g><path class="cls-1" d="M251,106.12l-.25,64.12h29.8v-59.27c0-22.94,18.31-40.99,41.59-41.59,3.31-.09,13.25,0,13.25,0v-29.79s-13.2-.11-17.6,0c-38.6,.99-66.66,29.85-66.8,66.54Z"/><path class="cls-1" d="M150.2,106.12l-.25,64.12h29.8v-59.27c0-22.94,18.31-40.99,41.59-41.59,3.31-.09,13.25,0,13.25,0v-29.79s-13.2-.11-17.6,0c-38.6,.99-66.66,29.85-66.8,66.54Z"/></g><rect class="cls-2" x="2" y="197.64" width="534.96" height="1"/></g></g></svg>